# xmcd
#
# Track frame offsets:
#	150
#	26410
#	49765
#	67150
#	86137
#	107780
#	129212
#	148080
#	167155
#	186985
#	205217
#	228577
#	245945
#	268977
#	291842
#	309537
#	328950
#
# Disc length: 4655
#
# Revision: 1
# Processed by: cddbd v1.5.1PL0 Copyright (c) Steve Scherf et al.
# Submitted via: EasyCDDAExtractor 4.6.9.1
# Normalized: r0:TDELIM( - )
#
DISCID=13122d11
DTITLE=Various Artist - The Home Of UK R&B presents Dome Cookin'
DYEAR=2002
DGENRE=R&B
TTITLE0=I want You Back (G&Q remix) - Sinclair
TTITLE1=I'm Back For more (Bob Jones remix) - Lulu and Bobby Womack
TTITLE2=This I Swear ( david Morales and Frankie Knuckles mix) - richard Darbyshire
TTITLE3=Moving On Up (On The Right Side) - Beverley Knight
TTITLE4=Tell Me How It Feels - Mike Stevens with Meli'sa Morgan
TTITLE5=What's A Man To Do - Robert Gordon
TTITLE6=It's On - Hilary with Blak Twang
TTITLE7=Runaway - D-Zine
TTITLE8=Just A Matter Of Time (VRS remix) - Hil St Soul
TTITLE9=Smile - Dennis Taylor
TTITLE10=Betcha Wouldn't Hurt Me - Full Flava featuring Donna Gardier
TTITLE11=Love You Yes - Beverlei Brown
TTITLE12=Make Me Happy (DJ Spinna mix) - Cooly's Hot Box
TTITLE13=I Wanna Know You - D-Influence presents D-Vas featuring Dyanna Fearon
TTITLE14=No Better Love - Angela Johnson
TTITLE15=I'm Not Giving Up (This Feeling) - Full Flava featuring Alison Limerick
TTITLE16=Could Be You - Beverlei Brown with Dennis Taylor
EXTD=
EXTT0=
EXTT1=
EXTT2=
EXTT3=
EXTT4=
EXTT5=
EXTT6=
EXTT7=
EXTT8=
EXTT9=
EXTT10=
EXTT11=
EXTT12=
EXTT13=
EXTT14=
EXTT15=
EXTT16=
PLAYORDER=
